PathFileType	4	(X/Y/Z)	7_coords_data.trc
DataRate	CameraRate	NumFrames	NumMarkers	Units	OrigDataRate	OrigDataStartFrame	OrigNumFrames
30.0	30.0	5	21	m	30.0	22	53
Frame#	Time	THUMB_TIP	THUMB_IP	THUMB_MCP	THUMB_CMC	INDEX_TIP	INDEX_DIP	INDEX_PIP	INDEX_MCP	MIDDLE_TIP	MIDDLE_DIP	MIDDLE_PIP	MIDDLE_MCP	RING_TIP	RING_DIP	RING_PIP	RING_MCP	PINKY_TIP	PINKY_DIP	PINKY_PIP	PINKY_MCP	WRIST
X1	Y1	Z1	X2	Y2	Z2	X3	Y3	Z3	X4	Y4	Z4	X5	Y5	Z5	X6	Y6	Z6	X7	Y7	Z7	X8	Y8	Z8	X9	Y9	Z9	X10	Y10	Z10	X11	Y11	Z11	X12	Y12	Z12	X13	Y13	Z13	X14	Y14	Z14	X15	Y15	Z15	X16	Y16	Z16	X17	Y17	Z17	X18	Y18	Z18	X19	Y19	Z19	X20	Y20	Z20	X21	Y21	Z21
20	0.6999999999999968	0.4698067146478854	-0.023815732685635305	-0.16740032579761238	0.4814147463721689	-0.025182377607146256	-0.1476168508463675	0.4795200932677663	-0.03400516875479942	-0.11782778160983587	0.4795061971787498	-0.031380988006389	-0.0732968543536201	0.5126724132711685	-0.018294840217530806	-0.10043373553909185	0.530519753221751	-0.015240942774125577	-0.10081605359190315	0.5420097400489752	0.004204569723785911	-0.11185516947152818	0.500715051174994	0.012006739589288995	-0.11874798531056929	0.5067783463649564	-0.018750830636111382	-0.08246822852436342	0.5241662001231385	-0.014761833697028326	-0.07934565825228712	0.54270254910905	0.006372379044575438	-0.08703710597460423	0.505450117005558	0.028251586139354634	-0.0984258952113265	0.504828119249735	-0.006260202321479391	-0.06897640307028641	0.5220228220379932	-0.003110926513198442	-0.06456910708444119	0.5388242407152917	0.015136397731621787	-0.06678889701471047	0.5073085314801795	0.038177490895475064	-0.07730502421166441	0.5031717363199634	-0.006094094307260711	-0.05215344969714031	0.5192508688873698	-0.003661418769410174	-0.04681082996452646	0.5304467651118412	0.01409538525243792	-0.04641103294034543	0.5044111565722975	0.037601199699411	-0.05480789105276496	0.4622830810018609	-0.023011742144276925	-0.051989820119430985
21	0.7333333333333302	0.46999731120494737	-0.02416606587537251	-0.16737895782620693	0.4815348327078058	-0.0254227811003922	-0.14754700723091035	0.47963216658399904	-0.03411840755879947	-0.11772107988376546	0.47963471280028125	-0.031367039575385225	-0.07319782789408458	0.5118065361449099	-0.018274694179550743	-0.09960443279606213	0.5296880575925053	-0.015440965100327664	-0.10007472018134445	0.5415961924134712	0.003685715885921592	-0.11122712945180935	0.5005412661157087	0.012099858194121627	-0.11879887495087671	0.5049816709622253	-0.018107861241150935	-0.08193278174003704	0.5225450055290096	-0.01492231239288977	-0.07886984892481819	0.541788840411517	0.005540688521714299	-0.08663837276038111	0.5052484234563793	0.028344062908180034	-0.09851069209298702	0.5031034039214561	-0.005642598351217609	-0.06828109647757197	0.5204514746953022	-0.0030082542266096635	-0.06414531705178406	0.5378321952001741	0.014664463360022806	-0.06654648069357316	0.5069530008101425	0.0383781894631805	-0.07744856224376595	0.5011872830385178	-0.005431958285022631	-0.05206077182496416	0.5173831361993262	-0.003443390054808537	-0.04688970454757202	0.5292165737008787	0.01389523387244962	-0.04649740847831185	0.5037912376564254	0.03801747020730639	-0.0550152399060847	0.4622830810018609	-0.023011742144276925	-0.051989820119430985
22	0.7666666666666633	0.4702658442312398	-0.02480175722282152	-0.167465844526902	0.4816610452216255	-0.025844234017350698	-0.14753941392527192	0.47969564342220933	-0.0343240529222435	-0.11765547397239629	0.4797148564789713	-0.03132606075432609	-0.07314815239695704	0.5121385555340097	-0.01872389901735305	-0.09809205207110461	0.5298731356756126	-0.015315947254880835	-0.0994597260036374	0.5411091523018645	0.0038729218287634204	-0.11118785742621906	0.500097101867278	0.012350618032516136	-0.11891938251689904	0.5051658893827736	-0.019122876001000044	-0.08077352486448741	0.5226665478276686	-0.014962076671699354	-0.07867240541609377	0.5411752476287461	0.005974439723573366	-0.08694886981244554	0.5045805690141787	0.028791130990516	-0.09862688410107967	0.5029251288385231	-0.006582594897280303	-0.06726622199339405	0.5202447900673346	-0.002867584249237498	-0.06391539660192158	0.5369100112274665	0.015406435391644324	-0.06683268795668185	0.5059291552544283	0.039038142780998264	-0.0776238789494228	0.5005699520812237	-0.006400392988750614	-0.05205820460974986	0.516673602068125	-0.00320984287183379	-0.04721126257885899	0.5279695376469433	0.014486378784388854	-0.04697126780178473	0.5026261927987327	0.03878265124642444	-0.05523501195048697	0.4622830810018609	-0.023011742144276925	-0.051989820119430985
23	0.7999999999999965	0.4709123725692752	-0.02532050509709005	-0.16762380387626918	0.48204419031254825	-0.026277272778236882	-0.14754477926512666	0.47976057785871656	-0.03456734169070297	-0.11763023645419168	0.47972053361737044	-0.031336943439812415	-0.0731391932702048	0.5140271004270827	-0.019380462278001276	-0.09743790482581882	0.5314428900946229	-0.014982730266020816	-0.09975095982015025	0.5413383681677192	0.00462480109364749	-0.11198346000140913	0.50004454608826	0.012381208636000451	-0.11893288401400892	0.507524992191018	-0.020414556215901936	-0.08020503509965116	0.5246656160259673	-0.014719847226808969	-0.07887488319918567	0.5417224734984192	0.007210018876378066	-0.08768136580353747	0.5042936740750786	0.029001936839995412	-0.09865156207317272	0.5047325098506519	-0.0076465614509290125	-0.06722415548773564	0.5217857480760936	-0.002578664645273454	-0.06430808141570621	0.5372390662972106	0.016680211521640342	-0.06754391573537877	0.505371309902986	0.03938618657274484	-0.07772260098333561	0.501951022134304	-0.007328142675472882	-0.05227338433291062	0.5178064588059446	-0.0029234337942262156	-0.047561307548406484	0.5281688548347889	0.015336422645295777	-0.047459276428442276	0.502187256197107	0.03905789197859111	-0.05540483341961322	0.4622830810018609	-0.023011742144276925	-0.051989820119430985
24	0.8333333333333297	0.4718939108507498	-0.025794552405982385	-0.16784861252987993	0.48265576758492046	-0.02683571910799898	-0.14757305060100112	0.4798175484779636	-0.03492674849446609	-0.11765149055196233	0.4796009154519576	-0.03149068847300174	-0.07317636759922697	0.5173642058688978	-0.020425484659858162	-0.09801736049887377	0.534285363266599	-0.014770192518049119	-0.10113057477242049	0.5423197484966241	0.005494254821728939	-0.1136529811301823	0.5005426518080733	0.011861136964061325	-0.11892299992152655	0.5117840227328738	-0.02158069363188453	-0.08079528768318278	0.5283659052724857	-0.014355980898556941	-0.07987621349498908	0.5435418639341356	0.00876755430846976	-0.08906326678912468	0.5046951464363321	0.02861198178758506	-0.09872138040783807	0.5085609215480957	-0.008629140449656347	-0.0681322880135461	0.5252172703098318	-0.0023285267377629593	-0.06532723671616836	0.5391734194174298	0.018019983643993376	-0.06869532316548088	0.5058471190817473	0.038988320202487214	-0.07788267326796527	0.5055129908278309	-0.008154433716245246	-0.052630291774234284	0.5210544288072262	-0.002769686983489117	-0.04789022762312012	0.5302564356515165	0.016101810262716953	-0.04793122425799701	0.5030367931833408	0.038493076077180555	-0.05558666220306041	0.4622830810018609	-0.023011742144276925	-0.051989820119430985
